<svg width="24" height="24" viewBox="0 0 24 24" fill="none" xmlns="http://www.w3.org/2000/svg">
<path d="M15.2713 5.27999H17.6491C17.9116 5.27999 18.1247 5.06495 18.1247 4.79999V1.56623C18.1247 1.31471 17.933 1.10543 17.6848 1.08767C16.9282 1.03343 15.4501 0.959991 14.3872 0.959991C11.4668 0.959991 9.56453 2.72639 9.56453 5.93663V9.11999H6.23557C5.97306 9.11999 5.76001 9.33503 5.76001 9.59999V12.96C5.76001 13.225 5.97306 13.44 6.23557 13.44H9.56453V22.56C9.56453 22.825 9.77758 23.04 10.0401 23.04H13.369C13.6316 23.04 13.8446 22.825 13.8446 22.56V13.44H17.2791C17.5217 13.44 17.7252 13.2562 17.7518 13.0128L18.1218 9.65279C18.1532 9.36863 17.9326 9.11999 17.6491 9.11999H13.8446V6.71999C13.8446 5.92463 14.4833 5.27999 15.2713 5.27999Z" fill="white"/>
</svg>
