<svg width="24" height="24" viewBox="0 0 24 24" fill="none" xmlns="http://www.w3.org/2000/svg">
<path d="M22.1214 17.8981C21.7192 18.8021 20.6817 19.6209 19.7076 19.8017C19.6079 19.8203 17.2271 20.25 12.0069 20.25H11.9931C6.77362 20.25 4.39075 19.8203 4.29175 19.8024C3.31756 19.6209 2.27944 18.8021 1.87656 17.8974C1.84081 17.8169 1.00069 15.8823 1.00069 12C1.00069 8.11769 1.84081 6.18238 1.87656 6.10194C2.27944 5.19719 3.31756 4.37906 4.29175 4.19825C4.39075 4.17969 6.77362 3.75 11.9931 3.75C17.2271 3.75 19.6079 4.17969 19.7069 4.19756C20.6817 4.37906 21.7192 5.19719 22.1221 6.10125C22.1578 6.18238 23 8.11769 23 12C23 15.8823 22.1578 17.8169 22.1214 17.8981ZM20.8639 6.65813C20.6494 6.17619 19.9771 5.64681 19.4559 5.54988C19.4339 5.54575 17.0779 5.125 12.0069 5.125C6.92281 5.125 4.56469 5.54575 4.542 5.54988C4.02087 5.64681 3.34919 6.17619 3.134 6.66088C3.12712 6.67531 2.37637 8.44494 2.37637 12C2.37637 15.5544 3.12712 17.324 3.13537 17.3419C3.34919 17.8238 4.02087 18.3532 4.54269 18.4501C4.56469 18.4542 6.92281 18.875 11.9931 18.875H12.0069C17.0779 18.875 19.4339 18.4542 19.4566 18.4501C19.9777 18.3532 20.6494 17.8238 20.8646 17.3391C20.8715 17.324 21.6236 15.5544 21.6236 12C21.6236 8.44562 20.8715 6.67531 20.8639 6.65813ZM10.3094 16.0191C10.1981 16.0899 10.0702 16.125 9.943 16.125C9.82887 16.125 9.71475 16.0968 9.61094 16.0391C9.39162 15.9181 9.2555 15.6877 9.2555 15.4375V8.5625C9.2555 8.31294 9.39025 8.08331 9.60819 7.96231C9.82612 7.84062 10.0936 7.84613 10.3046 7.97744L15.8177 11.3847C16.0191 11.5091 16.1429 11.7291 16.1436 11.9663C16.1442 12.2035 16.0232 12.4249 15.8225 12.5507L10.3094 16.0191ZM10.6312 9.79587V14.1924L14.1567 11.9746L10.6312 9.79587Z" fill="white"/>
</svg>
